<svg width="64" height="65" viewBox="0 0 64 65" fill="none" xmlns="http://www.w3.org/2000/svg">
<path opacity="0.5" d="M10.666 29.8359H42.666C47.6943 29.8359 50.2084 29.8359 51.7705 31.3981C53.3327 32.9602 53.3327 35.4743 53.3327 40.5026V43.1693C53.3327 50.7117 53.3327 54.4829 50.9895 56.8261C48.6463 59.1693 44.8751 59.1693 37.3327 59.1693H26.666C19.1235 59.1693 15.3523 59.1693 13.0092 56.8261C10.666 54.4829 10.666 50.7117 10.666 43.1693V29.8359Z" fill="#6B4D00"/>
<path d="M35.5151 22.3614L37.1159 8.9375L24.554 12.3035L24.4448 13.0619L22.834 26.5681L35.417 23.1964L35.5151 22.3614Z" fill="#6B4D00"/>
<path d="M9.28778 20.5484C8.73295 22.6189 9.37802 25.0263 10.6681 29.8412L18.666 27.698L18.7701 26.8613L20.3712 13.4375L20.0962 13.5112C15.2815 14.8013 12.8741 15.4463 11.3583 16.9621C10.3653 17.9551 9.65122 19.192 9.28778 20.5484Z" fill="#6B4D00"/>
<path d="M48.6589 19.6548L39.5723 22.0896L41.1832 8.58341L41.3304 7.85733C41.6739 7.78879 41.9677 7.7465 42.2477 7.72815C45.4765 7.51653 48.5147 9.27071 49.9459 12.1727C50.2944 12.8794 50.5349 13.777 51.016 15.5723C51.1763 16.1708 51.2565 16.47 51.2736 16.732C51.3443 17.8083 50.7595 18.8211 49.7923 19.2981C49.5565 19.4143 49.2573 19.4945 48.6589 19.6548Z" fill="#6B4D00"/>
</svg>
