<svg width="64" height="65" viewBox="0 0 64 65" fill="none" xmlns="http://www.w3.org/2000/svg">
<g opacity="0.5">
<path d="M53.3333 45.8332C56.2789 45.8332 58.6667 43.3457 58.6667 40.2775C58.6667 38.3577 56.5787 35.7956 55.0157 34.1463C54.0904 33.17 52.5763 33.17 51.6509 34.1463C50.088 35.7956 48 38.3577 48 40.2775C48 43.3457 50.3877 45.8332 53.3333 45.8332Z" fill="#704FE6"/>
<path d="M43.4087 28.6727L47.4215 21.7465L24.9945 8.875L7.0698 39.8143C3.49647 45.9821 5.61705 53.869 11.8062 57.4301C17.9954 60.9909 25.9095 58.8778 29.4828 52.7098L32.4676 47.5581L43.4087 28.6727Z" fill="#704FE6"/>
</g>
<path d="M24.7837 4.11458C23.8329 3.5525 22.6064 3.86762 22.0443 4.81847C21.4822 5.76932 21.7973 6.9958 22.7482 7.55791L24.9772 8.87564L24.9928 8.88479L47.4197 21.7563L49.6696 23.0475C50.6275 23.5973 51.8499 23.2664 52.3997 22.3084C52.9496 21.3504 52.6187 20.1281 51.6605 19.5783L27.0016 5.42578L24.7837 4.11458Z" fill="#704FE6"/>
<path d="M34.4697 44.1141L34.4649 44.1114L27.4977 40.1026C26.5403 39.5519 25.3176 39.8815 24.7668 40.8389C24.2159 41.7962 24.5455 43.0189 25.5029 43.5698L32.4646 47.5754L34.4697 44.1141Z" fill="#704FE6"/>
<path d="M38.8413 36.5697L38.8365 36.5668L27.6285 30.1183C26.6712 29.5676 25.4485 29.8969 24.8977 30.8545C24.3468 31.8119 24.6764 33.0345 25.6338 33.5855L36.8363 40.0308L38.8413 36.5697Z" fill="#704FE6"/>
<path d="M43.4032 28.6682L36.5818 24.7434C35.6242 24.1925 34.4016 24.5221 33.8506 25.4795C33.3 26.4369 33.6296 27.6597 34.5869 28.2103L41.4029 32.1319L43.4032 28.6682Z" fill="#704FE6"/>
</svg>
