<svg width="29" height="28" viewBox="0 0 29 28" fill="none" xmlns="http://www.w3.org/2000/svg">
<g opacity="0.5">
<path opacity="0.5" fill-rule="evenodd" clip-rule="evenodd" d="M2.83203 18.8294V5.82576C2.83203 4.54476 3.8657 3.50409 5.14436 3.58226C6.2842 3.65226 7.63053 3.79109 8.66536 4.06409C9.89036 4.38609 11.344 5.07443 12.4944 5.68343C13.1118 6.00715 13.8018 6.1674 14.4987 6.14893V23.8823C13.8363 23.8826 13.184 23.7199 12.5994 23.4086C11.4327 22.7879 9.9277 22.0669 8.66536 21.7344C7.6422 21.4638 6.31336 21.3261 5.18286 21.2549C3.88903 21.1733 2.83203 20.1268 2.83203 18.8294Z" fill="#25252B"/>
<path d="M26.1667 18.8384V5.76008C26.1667 4.50825 25.1797 3.48158 23.929 3.52475C22.6118 3.57142 20.9715 3.70675 19.75 4.07308C18.6907 4.38925 17.4575 5.02508 16.453 5.60725C15.8587 5.95221 15.187 6.14162 14.5 6.15792V23.8913C15.1533 23.8913 15.8078 23.7326 16.3993 23.4176C17.566 22.7969 19.071 22.0759 20.3333 21.7434C21.3565 21.4728 22.6853 21.3351 23.8158 21.2639C25.1097 21.1823 26.1667 20.1358 26.1667 18.8384Z" fill="#25252B"/>
</g>
</svg>
