<svg width="64" height="65" viewBox="0 0 64 65" fill="none" xmlns="http://www.w3.org/2000/svg">
<path d="M41.3327 20.4974C41.3327 25.6521 37.154 29.8307 31.9993 29.8307C26.8447 29.8307 22.666 25.6521 22.666 20.4974C22.666 15.3427 26.8447 11.1641 31.9993 11.1641C37.154 11.1641 41.3327 15.3427 41.3327 20.4974Z" fill="white"/>
<path opacity="0.4" d="M51.9993 20.5026C51.9993 24.1845 49.0145 27.1693 45.3327 27.1693C41.6508 27.1693 38.666 24.1845 38.666 20.5026C38.666 16.8207 41.6508 13.8359 45.3327 13.8359C49.0145 13.8359 51.9993 16.8207 51.9993 20.5026Z" fill="white"/>
<path opacity="0.4" d="M12 20.5026C12 24.1845 14.9848 27.1693 18.6667 27.1693C22.3486 27.1693 25.3333 24.1845 25.3333 20.5026C25.3333 16.8207 22.3486 13.8359 18.6667 13.8359C14.9848 13.8359 12 16.8207 12 20.5026Z" fill="white"/>
<path d="M48 44.4974C48 49.6521 40.8365 53.8307 32 53.8307C23.1634 53.8307 16 49.6521 16 44.4974C16 39.3427 23.1634 35.1641 32 35.1641C40.8365 35.1641 48 39.3427 48 44.4974Z" fill="white"/>
<path opacity="0.4" d="M58.6673 44.5026C58.6673 48.1845 53.8916 51.1693 48.0007 51.1693C42.1097 51.1693 37.334 48.1845 37.334 44.5026C37.334 40.8207 42.1097 37.8359 48.0007 37.8359C53.8916 37.8359 58.6673 40.8207 58.6673 44.5026Z" fill="white"/>
<path opacity="0.4" d="M5.33398 44.5026C5.33398 48.1845 10.1096 51.1693 16.0007 51.1693C21.8917 51.1693 26.6673 48.1845 26.6673 44.5026C26.6673 40.8207 21.8917 37.8359 16.0007 37.8359C10.1096 37.8359 5.33398 40.8207 5.33398 44.5026Z" fill="white"/>
</svg>
