<svg width="64" height="65" viewBox="0 0 64 65" fill="none" xmlns="http://www.w3.org/2000/svg">
<path opacity="0.5" d="M31.9987 45.8333C42.308 45.8333 50.6654 37.476 50.6654 27.1667C50.6654 16.8574 42.308 8.5 31.9987 8.5C21.6894 8.5 13.332 16.8574 13.332 27.1667C13.332 37.476 21.6894 45.8333 31.9987 45.8333Z" fill="#704FE6"/>
<path d="M25.6069 22.4018C25.2574 18.5112 22.2571 14.886 20.8007 13.5597L19.9961 12.8715C23.2414 10.1434 27.429 8.5 32.0008 8.5C36.1322 8.5 39.9504 9.84232 43.0426 12.1147C43.4797 13.441 42.6474 16.2123 41.7736 17.5386C41.457 18.019 40.7392 18.6154 39.9525 19.1808C38.1781 20.4556 35.9392 21.0861 34.8008 23.4333C34.4752 24.1043 34.489 24.7602 34.6456 25.3303C34.7581 25.7402 34.8301 26.1858 34.8312 26.6215C34.8349 28.0307 33.4098 29.0488 32.0008 29.0333C28.3341 28.9933 25.9337 26.0383 25.6069 22.4018Z" fill="#704FE6"/>
<path d="M34.678 38.8828C36.5225 35.407 42.6708 35.407 42.6708 35.407C49.0769 35.3401 49.9425 31.4505 50.5209 29.4844C49.4855 37.8497 42.9156 44.4993 34.5887 45.6561C33.9863 44.3886 33.2729 41.5308 34.678 38.8828Z" fill="#704FE6"/>
<path fill-rule="evenodd" clip-rule="evenodd" d="M48.0106 4.49431C48.7472 3.67127 50.0117 3.60122 50.8346 4.33788C56.8669 9.73692 60.668 17.5893 60.668 26.3268C60.668 41.6639 48.9645 54.2673 34.0013 55.6937V57.1615H37.3346C38.4392 57.1615 39.3346 58.0569 39.3346 59.1615C39.3346 60.266 38.4392 61.1615 37.3346 61.1615H26.668C25.5634 61.1615 24.668 60.266 24.668 59.1615C24.668 58.0569 25.5634 57.1615 26.668 57.1615H30.0013V55.8055C21.7326 55.4841 14.3356 51.7577 9.17773 45.9948C8.44106 45.1719 8.51111 43.9073 9.33415 43.1708C10.1572 42.434 11.4216 42.5041 12.1583 43.3273C16.8306 48.5476 23.6142 51.8281 31.1666 51.8281C45.2506 51.8281 56.668 40.4108 56.668 26.3268C56.668 18.7743 53.3874 11.9907 48.1672 7.31842C47.344 6.58175 47.2738 5.31738 48.0106 4.49431Z" fill="#704FE6"/>
</svg>
