<svg width="29" height="28" viewBox="0 0 29 28" fill="none" xmlns="http://www.w3.org/2000/svg">
<g opacity="0.5">
<path opacity="0.5" fill-rule="evenodd" clip-rule="evenodd" d="M3.125 7C3.125 6.51676 3.51676 6.125 4 6.125H23.8333C24.3166 6.125 24.7083 6.51676 24.7083 7C24.7083 7.48325 24.3166 7.875 23.8333 7.875H4C3.51676 7.875 3.125 7.48325 3.125 7ZM3.125 12.8333C3.125 12.3501 3.51676 11.9583 4 11.9583H13.3333C13.8166 11.9583 14.2083 12.3501 14.2083 12.8333C14.2083 13.3166 13.8166 13.7083 13.3333 13.7083H4C3.51676 13.7083 3.125 13.3166 3.125 12.8333ZM3.125 18.6667C3.125 18.1834 3.51676 17.7917 4 17.7917H14.5C14.9832 17.7917 15.375 18.1834 15.375 18.6667C15.375 19.1499 14.9832 19.5417 14.5 19.5417H4C3.51676 19.5417 3.125 19.1499 3.125 18.6667Z" fill="#25252B"/>
<path d="M20.298 9.88128C20.6397 9.53957 21.1936 9.53957 21.5353 9.88128L24.452 12.798C24.7937 13.1397 24.7937 13.6936 24.452 14.0353C24.1103 14.3771 23.5563 14.3771 23.2146 14.0353L21.7916 12.6125V19.8333C21.7916 20.3166 21.3999 20.7083 20.9166 20.7083C20.4334 20.7083 20.0416 20.3166 20.0416 19.8333V12.6125L18.6187 14.0353C18.2769 14.3771 17.723 14.3771 17.3813 14.0353C17.0396 13.6936 17.0396 13.1397 17.3813 12.798L20.298 9.88128Z" fill="#25252B"/>
</g>
</svg>
