<svg width="67" height="64" viewBox="0 0 67 64" fill="none" xmlns="http://www.w3.org/2000/svg">
<path d="M33.5 17C33.5 25.2843 26.7843 32 18.5 32H3.5V17C3.5 8.71572 10.2157 2 18.5 2C26.7843 2 33.5 8.71572 33.5 17Z" fill="#704FE6"/>
<path d="M18.5 3C26.232 3 32.5 9.26801 32.5 17C32.5 24.732 26.232 31 18.5 31H4.5V17C4.5 9.268 10.768 3 18.5 3Z" stroke="white" stroke-opacity="0.2" stroke-width="2"/>
<path d="M33.5 47C33.5 38.7157 40.2157 32 48.5 32H63.5V47C63.5 55.2843 56.7843 62 48.5 62C40.2157 62 33.5 55.2843 33.5 47Z" fill="#704FE6"/>
<path d="M48.5 33H62.5V47C62.5 54.732 56.232 61 48.5 61C40.768 61 34.5 54.732 34.5 47C34.5 39.268 40.768 33 48.5 33Z" stroke="white" stroke-opacity="0.2" stroke-width="2"/>
<path d="M3.5 47C3.5 55.2843 10.2157 62 18.5 62H33.5V47C33.5 38.7157 26.7843 32 18.5 32C10.2157 32 3.5 38.7157 3.5 47Z" fill="#704FE6"/>
<path d="M18.5 33C26.232 33 32.5 39.268 32.5 47V61H18.5C10.768 61 4.5 54.732 4.5 47C4.5 39.268 10.768 33 18.5 33Z" stroke="white" stroke-opacity="0.2" stroke-width="2"/>
<path d="M63.5 17C63.5 8.71572 56.7843 2 48.5 2H33.5V17C33.5 25.2843 40.2157 32 48.5 32C56.7843 32 63.5 25.2843 63.5 17Z" fill="#FFD25D"/>
</svg>
