<svg width="64" height="65" viewBox="0 0 64 65" fill="none" xmlns="http://www.w3.org/2000/svg">
<path d="M8.78104 25.281C8 26.0621 8 27.3192 8 29.8333V45.8333C8 48.3475 8 49.6045 8.78104 50.3856C9.56211 51.1667 10.8192 51.1667 13.3333 51.1667C15.8475 51.1667 17.1046 51.1667 17.8856 50.3856C18.6667 49.6045 18.6667 48.3475 18.6667 45.8333V29.8333C18.6667 27.3192 18.6667 26.0621 17.8856 25.281C17.1046 24.5 15.8475 24.5 13.3333 24.5C10.8192 24.5 9.56211 24.5 8.78104 25.281Z" fill="#704FE6"/>
<path opacity="0.4" d="M46.1151 6.61698C45.334 7.39804 45.334 8.65511 45.334 11.1693V45.8359C45.334 48.3501 45.334 49.6071 46.1151 50.3882C46.8961 51.1693 48.1532 51.1693 50.6673 51.1693C53.1815 51.1693 54.4385 51.1693 55.2196 50.3882C56.0007 49.6071 56.0007 48.3501 56.0007 45.8359V11.1693C56.0007 8.65511 56.0007 7.39804 55.2196 6.61698C54.4385 5.83594 53.1815 5.83594 50.6673 5.83594C48.1532 5.83594 46.8961 5.83594 46.1151 6.61698Z" fill="#704FE6"/>
<path opacity="0.7" d="M26.666 19.1693C26.666 16.6551 26.666 15.398 27.4471 14.617C28.2281 13.8359 29.4852 13.8359 31.9993 13.8359C34.5135 13.8359 35.7705 13.8359 36.5516 14.617C37.3327 15.398 37.3327 16.6551 37.3327 19.1693V45.8359C37.3327 48.3501 37.3327 49.6071 36.5516 50.3882C35.7705 51.1693 34.5135 51.1693 31.9993 51.1693C29.4852 51.1693 28.2281 51.1693 27.4471 50.3882C26.666 49.6071 26.666 48.3501 26.666 45.8359V19.1693Z" fill="#704FE6"/>
<path d="M8 57.1641C6.89544 57.1641 6 58.0595 6 59.1641C6 60.2686 6.89544 61.1641 8 61.1641H56C57.1045 61.1641 58 60.2686 58 59.1641C58 58.0595 57.1045 57.1641 56 57.1641H8Z" fill="#704FE6"/>
</svg>
