<svg width="64" height="65" viewBox="0 0 64 65" fill="none" xmlns="http://www.w3.org/2000/svg">
<path opacity="0.5" d="M10.666 26.3011C10.666 14.9985 19.6203 5.83594 30.666 5.83594C41.7116 5.83594 50.666 14.9985 50.666 26.3011C50.666 32.3607 48.09 37.8071 44.0031 41.5517C42.6409 42.7997 41.6319 43.7245 40.9167 44.3954C40.5591 44.7306 40.2857 44.9927 40.0839 45.1938C39.9834 45.2941 39.9063 45.3735 39.8489 45.4349C39.8207 45.4653 39.7993 45.489 39.7839 45.5069L39.77 45.5229L39.7615 45.533C39.1308 46.3295 38.9943 46.5351 38.9129 46.7213C38.8316 46.9074 38.7732 47.1485 38.614 48.1605C38.5513 48.5602 38.5447 49.2445 38.5447 51.1071V51.1871C38.545 52.2781 38.5449 53.2191 38.4764 53.9914C38.4042 54.8079 38.2442 55.6165 37.814 56.3786C37.3354 57.2271 36.6468 57.9317 35.8175 58.4215C35.0727 58.8615 34.2826 59.0253 33.4847 59.0994C32.73 59.1693 31.8105 59.1693 30.7444 59.1693H30.5879C29.5217 59.1693 28.602 59.1693 27.8473 59.0994C27.0495 59.0253 26.2593 58.8615 25.5145 58.4215C24.6853 57.9317 23.9967 57.2271 23.518 56.3786C23.088 55.6165 22.9279 54.8079 22.8555 53.9914C22.7872 53.2191 22.7872 52.2781 22.7872 51.1871V51.1071C22.7872 49.2445 22.7808 48.5602 22.718 48.1605C22.5589 47.1485 22.5003 46.9074 22.4191 46.7213C22.3377 46.5351 22.2012 46.3295 21.5705 45.533L21.5618 45.5226L21.5481 45.5069C21.5327 45.489 21.5113 45.4653 21.4829 45.4349C21.4256 45.3735 21.3487 45.2941 21.2481 45.1938C21.0463 44.9927 20.7729 44.7306 20.4154 44.3954C19.7002 43.7245 18.6911 42.7997 17.3289 41.5517C13.2421 37.8071 10.666 32.3607 10.666 26.3011Z" fill="#704FE6"/>
<path d="M27.4601 36.8349C26.9071 35.8787 25.6835 35.552 24.7274 36.1051C23.7713 36.6581 23.4445 37.8816 23.9976 38.8379C24.9397 40.4664 26.4942 41.7021 28.3487 42.2267V45.8363C28.3487 46.9408 29.2441 47.8363 30.3487 47.8363C31.4532 47.8363 32.3487 46.9408 32.3487 45.8363V42.2269C34.2031 41.7021 35.7577 40.4664 36.6996 38.8379C37.2527 37.8816 36.926 36.6581 35.97 36.1051C35.0138 35.552 33.7903 35.8787 33.2372 36.8349C32.658 37.8365 31.5799 38.5029 30.3487 38.5029C29.1175 38.5029 28.0393 37.8365 27.4601 36.8349Z" fill="#704FE6"/>
<path d="M26.4375 52.9609H34.8911C34.8833 53.2196 34.8713 53.4455 34.8532 53.6489C34.8039 54.2073 34.7204 54.41 34.6631 54.5113C34.5036 54.7943 34.274 55.0292 33.9977 55.1924C33.8985 55.2511 33.7004 55.3364 33.1545 55.3871C32.5839 55.4399 31.8305 55.4417 30.6644 55.4417C29.498 55.4417 28.7449 55.4399 28.174 55.3871C27.6281 55.3364 27.43 55.2511 27.3311 55.1924C27.0545 55.0292 26.8249 54.7943 26.6655 54.5113C26.6083 54.41 26.5249 54.2073 26.4754 53.6489C26.4574 53.4455 26.4454 53.2196 26.4375 52.9609Z" fill="#704FE6"/>
</svg>
