<svg width="64" height="65" viewBox="0 0 64 65" fill="none" xmlns="http://www.w3.org/2000/svg">
<g opacity="0.5">
<path fill-rule="evenodd" clip-rule="evenodd" d="M14.579 12.2122C15.3593 12.994 15.358 14.2603 14.5762 15.0406C10.0999 19.508 7.33398 25.6791 7.33398 32.5C7.33398 39.4008 10.165 45.6365 14.7341 50.1157C15.5228 50.8891 15.5354 52.1552 14.7622 52.944C13.9889 53.7328 12.7227 53.7453 11.9339 52.972C6.62902 47.7717 3.33398 40.5189 3.33398 32.5C3.33398 24.5742 6.55321 17.3964 11.7506 12.2094C12.5324 11.4291 13.7988 11.4304 14.579 12.2122ZM49.6444 12.4052C50.4332 11.632 51.6993 11.6446 52.4727 12.4333C57.5396 17.602 60.6673 24.6878 60.6673 32.5C60.6673 40.4053 57.4649 47.5664 52.2913 52.7501C51.5111 53.532 50.2447 53.5333 49.4631 52.7531C48.6812 51.9728 48.6799 50.7064 49.4601 49.9245C53.9159 45.46 56.6673 39.3032 56.6673 32.5C56.6673 25.7766 53.9799 19.6848 49.6164 15.2335C48.8431 14.4447 48.8556 13.1785 49.6444 12.4052ZM22.1586 20.4668C22.9133 21.2734 22.8714 22.539 22.0649 23.2937C19.5344 25.6617 18.0007 28.9005 18.0007 32.4525C18.0007 36.0459 19.5705 39.3195 22.1541 41.6944C22.9673 42.4419 23.0206 43.7069 22.2731 44.5203C21.5256 45.3333 20.2604 45.3867 19.4472 44.6392C16.1064 41.5683 14.0007 37.2531 14.0007 32.4525C14.0007 27.708 16.0579 23.4367 19.3317 20.3731C20.1383 19.6184 21.4039 19.6603 22.1586 20.4668ZM41.9817 20.5682C42.7452 19.77 44.0111 19.7419 44.8095 20.5054C48.002 23.559 50.0007 27.7763 50.0007 32.4525C50.0007 37.1848 47.954 41.4461 44.6951 44.508C43.8903 45.2645 42.6244 45.2251 41.8681 44.42C41.1119 43.6149 41.1513 42.3493 41.9561 41.5931C44.4748 39.2267 46.0007 35.9955 46.0007 32.4525C46.0007 28.9512 44.5103 25.7546 42.0444 23.396C41.2463 22.6325 41.2183 21.3664 41.9817 20.5682Z" fill="#704FE6"/>
</g>
<path d="M36.4161 28.3696C38.8049 30.1235 39.9993 31.0003 39.9993 32.5C39.9993 33.9997 38.8049 34.8765 36.4161 36.6304C35.7569 37.1144 35.1028 37.5704 34.5017 37.9501C33.9745 38.2835 33.3775 38.628 32.7591 38.9664C30.3761 40.2707 29.1844 40.9229 28.1159 40.2008C27.0471 39.4787 26.95 37.9672 26.7559 34.9443C26.7009 34.0893 26.666 33.2512 26.666 32.5C26.666 31.7488 26.7009 30.9107 26.7559 30.0557C26.95 27.0327 27.0471 25.5212 28.1159 24.7992C29.1844 24.0772 30.3761 24.7293 32.7591 26.0336C33.3775 26.372 33.9745 26.7166 34.5017 27.0498C35.1028 27.4296 35.7569 27.8856 36.4161 28.3696Z" fill="#704FE6"/>
</svg>
