<svg width="372" height="43" viewBox="0 0 372 43" fill="none" xmlns="http://www.w3.org/2000/svg">
<path d="M5 24.0922C9.81451 23.3686 13.5074 14.9165 16.4557 12.2325C22.4458 6.77937 27.4661 5.9575 37.0759 6.01573C67.376 6.19934 87.1533 27.3953 112.684 36.8126C127.781 42.3815 140.085 26.9648 147.051 19.5013C154.826 11.1709 168.239 8.09679 181.418 9.65015C201.678 12.0382 216.431 24.5832 235.896 27.1049C247.488 28.6067 254.195 23.6993 262.117 18.1623C267.653 14.2928 272.395 8.05456 279.3 5.63316C281.987 4.69117 286.534 5.01499 289.356 5.25059C303.14 6.40139 316.75 15.515 328.496 20.6012C334.847 23.3511 342.923 28.1978 350.326 29.209C355.608 29.9307 361.633 29.2569 367 29.2569" stroke="#FFD25D" stroke-width="10" stroke-linecap="round"/>
</svg>
