<svg width="28" height="28" viewBox="0 0 28 28" fill="none" xmlns="http://www.w3.org/2000/svg">
<path opacity="0.5" fill-rule="evenodd" clip-rule="evenodd" d="M2.625 7C2.625 6.51676 3.01676 6.125 3.5 6.125H23.3333C23.8166 6.125 24.2083 6.51676 24.2083 7C24.2083 7.48325 23.8166 7.875 23.3333 7.875H3.5C3.01676 7.875 2.625 7.48325 2.625 7ZM2.625 12.8333C2.625 12.3501 3.01676 11.9583 3.5 11.9583H12.8333C13.3166 11.9583 13.7083 12.3501 13.7083 12.8333C13.7083 13.3166 13.3166 13.7083 12.8333 13.7083H3.5C3.01676 13.7083 2.625 13.3166 2.625 12.8333ZM2.625 18.6667C2.625 18.1834 3.01676 17.7917 3.5 17.7917H14C14.4832 17.7917 14.875 18.1834 14.875 18.6667C14.875 19.1499 14.4832 19.5417 14 19.5417H3.5C3.01676 19.5417 2.625 19.1499 2.625 18.6667Z" fill="#704FE6"/>
<path d="M19.798 9.88128C20.1397 9.53957 20.6936 9.53957 21.0353 9.88128L23.952 12.798C24.2937 13.1397 24.2937 13.6936 23.952 14.0353C23.6103 14.3771 23.0563 14.3771 22.7146 14.0353L21.2916 12.6125V19.8333C21.2916 20.3166 20.8999 20.7083 20.4166 20.7083C19.9334 20.7083 19.5416 20.3166 19.5416 19.8333V12.6125L18.1187 14.0353C17.7769 14.3771 17.223 14.3771 16.8813 14.0353C16.5396 13.6936 16.5396 13.1397 16.8813 12.798L19.798 9.88128Z" fill="#704FE6"/>
</svg>
