<svg width="29" height="28" viewBox="0 0 29 28" fill="none" xmlns="http://www.w3.org/2000/svg">
<path d="M18.5827 8.7474C18.5827 11.0026 16.7545 12.8307 14.4993 12.8307C12.2442 12.8307 10.416 11.0026 10.416 8.7474C10.416 6.49223 12.2442 4.66406 14.4993 4.66406C16.7545 4.66406 18.5827 6.49223 18.5827 8.7474Z" fill="#704FE6"/>
<path opacity="0.4" d="M23.2493 8.7526C23.2493 10.3634 21.9435 11.6693 20.3327 11.6693C18.7219 11.6693 17.416 10.3634 17.416 8.7526C17.416 7.14178 18.7219 5.83594 20.3327 5.83594C21.9435 5.83594 23.2493 7.14178 23.2493 8.7526Z" fill="#704FE6"/>
<path opacity="0.4" d="M5.75 8.7526C5.75 10.3634 7.05584 11.6693 8.66667 11.6693C10.2775 11.6693 11.5833 10.3634 11.5833 8.7526C11.5833 7.14178 10.2775 5.83594 8.66667 5.83594C7.05584 5.83594 5.75 7.14178 5.75 8.7526Z" fill="#704FE6"/>
<path d="M21.5 19.2474C21.5 21.5026 18.366 23.3307 14.5 23.3307C10.634 23.3307 7.5 21.5026 7.5 19.2474C7.5 16.9922 10.634 15.1641 14.5 15.1641C18.366 15.1641 21.5 16.9922 21.5 19.2474Z" fill="#704FE6"/>
<path opacity="0.4" d="M26.1673 19.2526C26.1673 20.8634 24.0779 22.1693 21.5007 22.1693C18.9234 22.1693 16.834 20.8634 16.834 19.2526C16.834 17.6418 18.9234 16.3359 21.5007 16.3359C24.0779 16.3359 26.1673 17.6418 26.1673 19.2526Z" fill="#704FE6"/>
<path opacity="0.4" d="M2.83398 19.2526C2.83398 20.8634 4.92332 22.1693 7.50065 22.1693C10.078 22.1693 12.1673 20.8634 12.1673 19.2526C12.1673 17.6418 10.078 16.3359 7.50065 16.3359C4.92332 16.3359 2.83398 17.6418 2.83398 19.2526Z" fill="#704FE6"/>
</svg>
