<svg width="29" height="28" viewBox="0 0 29 28" fill="none" xmlns="http://www.w3.org/2000/svg">
<path opacity="0.5" d="M15.7898 25.6615H13.2091C9.18762 25.6615 7.17745 25.6615 5.80662 24.4808C4.43579 23.3001 4.15112 21.325 3.58295 17.3723L3.25746 15.1125C2.81412 12.036 2.59245 10.4971 3.22362 9.18229C3.85479 7.86746 5.19646 7.06712 7.88096 5.46879L9.49679 4.50629C11.9328 3.05379 13.1531 2.32812 14.4995 2.32812C15.8458 2.32812 17.065 3.05379 19.5021 4.50629L21.118 5.46879C23.8013 7.06712 25.1441 7.86746 25.7753 9.18229C26.4065 10.4971 26.1836 12.036 25.7403 15.1125L25.416 17.3723C24.8478 21.325 24.5631 23.3001 23.1923 24.4808C21.8215 25.6615 19.8113 25.6615 15.7898 25.6615Z" fill="#704FE6"/>
<path d="M10.125 21C10.125 20.7679 10.2172 20.5454 10.3813 20.3813C10.5454 20.2172 10.7679 20.125 11 20.125H18C18.2321 20.125 18.4546 20.2172 18.6187 20.3813C18.7828 20.5454 18.875 20.7679 18.875 21C18.875 21.2321 18.7828 21.4546 18.6187 21.6187C18.4546 21.7828 18.2321 21.875 18 21.875H11C10.7679 21.875 10.5454 21.7828 10.3813 21.6187C10.2172 21.4546 10.125 21.2321 10.125 21Z" fill="#704FE6"/>
</svg>
